<svg width="25" height="25" viewBox="0 0 25 25" fill="none" xmlns="http://www.w3.org/2000/svg">
<path d="M22.6563 10.1563H14.8438V2.34375C14.8438 1.04922 13.7945 0 12.5 0C11.2055 0 10.1563 1.04922 10.1563 2.34375V10.1563H2.34375C1.04922 10.1563 0 11.2055 0 12.5C0 13.7945 1.04922 14.8438 2.34375 14.8438H10.1563V22.6563C10.1563 23.9508 11.2055 25 12.5 25C13.7945 25 14.8438 23.9508 14.8438 22.6563V14.8438H22.6563C23.9508 14.8438 25 13.7945 25 12.5C25 11.2055 23.9508 10.1563 22.6563 10.1563Z" fill="#1A6DAB"/>
</svg>
