<svg width="40" height="40" viewBox="0 0 40 40" fill="none" xmlns="http://www.w3.org/2000/svg">
<path d="M12.9 1.25C10.3 2.217 7.95 3.75 5.85 5.851C1.95 9.75 0 14.467 0 20C0 25.533 1.95 30.233 5.85 34.101C9.783 38.033 14.5 40 20 40C25.533 40 30.25 38.033 34.15 34.101C38.051 30.233 40 25.533 40 20C40 14.467 38.051 9.75 34.15 5.851C32.05 3.75 29.716 2.217 27.15 1.25C24.949 0.417 22.566 0 20 0C17.466 0 15.1 0.417 12.9 1.25Z" fill="#1A6DAB"/>
<path d="M11.6094 15.5703L8.51562 25H6.02344L10.25 13.625H11.8359L11.6094 15.5703ZM14.1797 25L11.0781 15.5703L10.8281 13.625H12.4297L16.6797 25H14.1797ZM14.0391 20.7656V22.6016H8.03125V20.7656H14.0391ZM25.0469 23.1719V25H19.3203V23.1719H25.0469ZM20.0781 13.625V25H17.7344V13.625H20.0781ZM33.7031 23.1719V25H27.9766V23.1719H33.7031ZM28.7344 13.625V25H26.3906V13.625H28.7344Z" fill="white"/>
</svg>
