<svg width="40" height="40" viewBox="0 0 40 40" fill="none" xmlns="http://www.w3.org/2000/svg">
<path d="M12.9 1.25C10.3 2.217 7.95 3.75 5.85 5.851C1.95 9.75 0 14.467 0 20C0 25.533 1.95 30.234 5.85 34.101C9.783 38.033 14.5 40 20 40C25.533 40 30.25 38.033 34.15 34.101C38.051 30.234 40 25.533 40 20C40 14.467 38.051 9.75 34.15 5.851C32.05 3.75 29.716 2.217 27.15 1.25C24.949 0.417 22.566 0 20 0C17.467 0 15.1 0.417 12.9 1.25Z" fill="#845EC2"/>
<path d="M12.4819 32.9004V28.8486H11.7832V28.2334H12.4819V27.7368C12.4819 27.4233 12.5098 27.1904 12.5654 27.0381C12.6416 26.833 12.7749 26.6675 12.9653 26.5415C13.1587 26.4126 13.4282 26.3481 13.7739 26.3481C13.9966 26.3481 14.2427 26.3745 14.5122 26.4272L14.3936 27.1172C14.2295 27.0879 14.0742 27.0732 13.9277 27.0732C13.6875 27.0732 13.5176 27.1245 13.418 27.2271C13.3184 27.3296 13.2686 27.5215 13.2686 27.8027V28.2334H14.1782V28.8486H13.2686V32.9004H12.4819ZM14.7891 32.9004V28.2334H15.501V28.9409C15.6826 28.6099 15.8496 28.3916 16.002 28.2861C16.1572 28.1807 16.3271 28.1279 16.5117 28.1279C16.7783 28.1279 17.0493 28.2129 17.3247 28.3828L17.0522 29.1167C16.8589 29.0024 16.6655 28.9453 16.4722 28.9453C16.2993 28.9453 16.144 28.998 16.0063 29.1035C15.8687 29.2061 15.7705 29.3496 15.7119 29.5342C15.624 29.8154 15.5801 30.123 15.5801 30.457V32.9004H14.7891ZM20.9897 31.3975L21.8071 31.4985C21.6782 31.9761 21.4395 32.3467 21.0908 32.6104C20.7422 32.874 20.2969 33.0059 19.7549 33.0059C19.0723 33.0059 18.5303 32.7964 18.1289 32.3774C17.7305 31.9556 17.5312 31.3652 17.5312 30.6064C17.5312 29.8213 17.7334 29.2119 18.1377 28.7783C18.542 28.3447 19.0664 28.1279 19.7109 28.1279C20.335 28.1279 20.8447 28.3403 21.2402 28.7651C21.6357 29.1899 21.8335 29.7876 21.8335 30.5581C21.8335 30.605 21.832 30.6753 21.8291 30.769H18.3486C18.3779 31.2817 18.5229 31.6743 18.7837 31.9468C19.0444 32.2192 19.3696 32.3555 19.7593 32.3555C20.0493 32.3555 20.2969 32.2793 20.502 32.127C20.707 31.9746 20.8696 31.7314 20.9897 31.3975ZM18.3926 30.1187H20.9985C20.9634 29.7261 20.8638 29.4316 20.6997 29.2354C20.4478 28.9307 20.1211 28.7783 19.7197 28.7783C19.3564 28.7783 19.0503 28.8999 18.8013 29.1431C18.5552 29.3862 18.4189 29.7114 18.3926 30.1187ZM25.9995 31.3975L26.8169 31.4985C26.688 31.9761 26.4492 32.3467 26.1006 32.6104C25.752 32.874 25.3066 33.0059 24.7646 33.0059C24.082 33.0059 23.54 32.7964 23.1387 32.3774C22.7402 31.9556 22.541 31.3652 22.541 30.6064C22.541 29.8213 22.7432 29.2119 23.1475 28.7783C23.5518 28.3447 24.0762 28.1279 24.7207 28.1279C25.3447 28.1279 25.8545 28.3403 26.25 28.7651C26.6455 29.1899 26.8433 29.7876 26.8433 30.5581C26.8433 30.605 26.8418 30.6753 26.8389 30.769H23.3584C23.3877 31.2817 23.5327 31.6743 23.7935 31.9468C24.0542 32.2192 24.3794 32.3555 24.769 32.3555C25.0591 32.3555 25.3066 32.2793 25.5117 32.127C25.7168 31.9746 25.8794 31.7314 25.9995 31.3975ZM23.4023 30.1187H26.0083C25.9731 29.7261 25.8735 29.4316 25.7095 29.2354C25.4575 28.9307 25.1309 28.7783 24.7295 28.7783C24.3662 28.7783 24.0601 28.8999 23.811 29.1431C23.5649 29.3862 23.4287 29.7114 23.4023 30.1187Z" fill="white"/>
<path d="M11.3 6.4C11.266 6.333 11.2 6.266 11.1 6.2C11.033 6.167 10.95 6.15 10.85 6.15L8.10005 6.8C8.06705 6.8 8.05005 6.833 8.05005 6.9H8.10005L10.15 7.25C10.317 7.283 10.417 7.367 10.45 7.5L10.55 7.8L8.25005 10.651C8.15005 10.751 8.10005 10.884 8.10005 11.05C8.13305 11.151 8.18305 11.25 8.25005 11.351L8.70005 11.851C8.80005 11.951 8.91705 12.017 9.05005 12.05C9.18405 12.084 9.30005 12.066 9.40005 12L9.85005 11.8C9.98305 11.734 10.133 11.7 10.3 11.7H12.25C12.383 11.7 12.483 11.766 12.55 11.9L14.1 15.549L14.15 15.6C14.35 16.166 14.684 17.066 15.15 18.299C15.217 18.433 15.25 18.583 15.25 18.749V21.499C15.25 21.666 15.2 21.8 15.1 21.899L13.95 23.499C13.883 23.565 13.867 23.633 13.9 23.699C13.967 23.8 14.033 23.849 14.1 23.849H15.5C15.633 23.849 15.75 23.799 15.85 23.699C15.95 23.666 16.017 23.583 16.05 23.449L17.05 19.149C17.083 18.882 17.1 18.599 17.1 18.298V17.599L17.4 17.699C17.667 17.799 17.95 17.849 18.25 17.849L21.551 18C21.717 18.167 21.901 18.3 22.1 18.4V20.1C22.1 20.267 22.151 20.4 22.25 20.499C22.383 20.633 22.533 20.699 22.699 20.699C22.9 20.699 23.066 20.633 23.199 20.499C23.301 20.399 23.349 20.267 23.349 20.1V19C23.583 19.033 23.849 19.05 24.15 19.05H24.349V20.101C24.349 20.268 24.4001 20.401 24.4991 20.5C24.6651 20.634 24.8331 20.7 24.9991 20.7C25.1651 20.7 25.315 20.634 25.448 20.5C25.583 20.4 25.649 20.268 25.649 20.101V18.8C25.915 18.634 26.165 18.467 26.399 18.3C26.499 18.267 26.583 18.217 26.649 18.151V18.701L27.049 19.251C27.182 19.418 27.248 19.635 27.248 19.901V21.801C27.248 21.901 27.215 22.033 27.148 22.2L26.648 23.5C26.615 23.601 26.615 23.684 26.648 23.75C26.681 23.851 26.763 23.9 26.898 23.9H28.148C28.281 23.9 28.38 23.85 28.447 23.75C28.549 23.684 28.597 23.584 28.597 23.45L28.847 18.85C28.847 18.716 28.831 18.6 28.798 18.499L28.398 17.1C28.332 16.9 28.314 16.7 28.347 16.499L29.048 13.749C29.048 13.616 29.081 13.499 29.148 13.399L29.498 12.899C29.631 12.699 29.682 12.482 29.648 12.249L29.6 10.5C29.868 10.533 30.084 10.667 30.25 10.9C30.482 11.1 30.617 11.35 30.65 11.65L30.75 14.9C30.482 15.266 30.35 15.633 30.35 16C30.317 16.4 30.45 16.816 30.75 17.25C30.85 17.483 30.982 17.65 31.15 17.75L31.55 17.25C31.849 16.851 32.015 16.45 32.05 16.05C32.05 15.584 31.8661 15.117 31.4991 14.651L31.448 11.55C31.382 10.984 31.132 10.517 30.698 10.151C30.264 9.784 29.764 9.601 29.198 9.601L29.051 9.55H17.1C16.967 9.55 16.833 9.517 16.7 9.45L12.5 7.5C12.5 7.134 12.6 6.7 12.8 6.2C12.833 6.134 12.817 6.05 12.75 5.95C12.684 5.884 12.6 5.884 12.5 5.95C12.1 6.117 11.75 6.384 11.45 6.75L11.3 6.4Z" fill="white"/>
</svg>
