<svg width="35" height="35" viewBox="0 0 35 35" fill="none" xmlns="http://www.w3.org/2000/svg">
<path d="M14.8197 34.375C14.6037 34.3757 14.3918 34.3108 14.2082 34.1875C14.0419 34.0749 13.9048 33.9183 13.81 33.7324C13.7151 33.5465 13.6655 33.3374 13.6659 33.125V21.1L4.75818 10.3875C3.80485 9.23753 3.27866 7.74566 3.28126 6.2V5.625C3.28126 5.29348 3.40283 4.97554 3.61921 4.74112C3.8356 4.5067 4.12909 4.375 4.4351 4.375H32.1274C32.4334 4.375 32.7269 4.5067 32.9433 4.74112C33.1597 4.97554 33.2812 5.29348 33.2812 5.625V6.2C33.2838 7.74566 32.7577 9.23753 31.8043 10.3875L22.8966 21.1V27.825C22.8979 28.5231 22.7193 29.2076 22.3809 29.8017C22.0425 30.3958 21.5578 30.8757 20.9812 31.1875L15.3389 34.2375C15.1782 34.3267 15.0003 34.3738 14.8197 34.375ZM5.64664 6.875C5.76099 7.55908 6.04862 8.19527 6.47741 8.7125L15.7082 19.7875C15.888 20.0222 15.9824 20.3201 15.9736 20.625V31.1L19.9543 28.95C20.1464 28.8452 20.3075 28.6843 20.4197 28.4855C20.5318 28.2867 20.5904 28.058 20.5889 27.825V20.625C20.5897 20.3152 20.6966 20.0167 20.8889 19.7875L30.1197 8.7125C30.5569 8.1982 30.8526 7.56175 30.9735 6.875H5.64664Z" fill="#00C383"/>
</svg>
