<svg width="31" height="30" viewBox="0 0 31 30" fill="none" xmlns="http://www.w3.org/2000/svg">
<g clip-path="url(#clip0_5_163)">
<path d="M15.6802 29.7187C7.54718 29.748 0.854961 23.0039 1.0549 14.748C1.24309 6.90234 7.77064 0.416012 15.886 0.509762C23.9249 0.603512 30.5583 7.27148 30.3525 15.498C30.1584 23.3203 23.6838 29.7656 15.6802 29.7187ZM13.9983 22.7168C13.2808 22.4883 12.5516 22.3184 11.8812 22.0195C10.5169 21.4102 9.65246 20.3555 9.37607 18.873C9.19965 17.9121 9.27022 16.9453 9.38783 15.9844C9.49368 15.1348 9.74067 14.3437 10.3875 13.7285C10.4346 13.6816 10.4405 13.5469 10.4111 13.4766C10.0994 12.6269 10.1347 11.7773 10.3875 10.916C10.464 10.6582 10.5875 10.6289 10.811 10.6992C11.399 10.8809 11.8754 11.2324 12.2811 11.6777C12.4987 11.9121 12.6928 12.1699 12.8986 12.416C14.1218 11.625 17.6208 11.625 18.9028 12.4043C19.1498 12.1172 19.385 11.8184 19.6496 11.543C20.0436 11.1387 20.5023 10.8281 21.061 10.6758C21.2433 10.623 21.3433 10.6641 21.4079 10.8574C21.6961 11.707 21.749 12.5566 21.4079 13.4062C21.3433 13.5762 21.3491 13.6875 21.4844 13.8164C21.8902 14.2031 22.1372 14.6894 22.2665 15.2344C22.5135 16.248 22.5664 17.2852 22.4959 18.3164C22.4194 19.4238 22.0019 20.3965 21.1845 21.1758C20.4964 21.8262 19.6731 22.2129 18.7675 22.4414C18.4382 22.5234 18.1089 22.582 17.756 22.6523C18.2089 23.3437 18.3206 24.0937 18.3029 24.8789C18.2853 25.7168 18.2971 26.5605 18.2971 27.3984C18.2971 27.498 18.3029 27.6035 18.3088 27.709C23.6779 26.7363 29.0999 21.4102 28.5059 14.0332C27.9473 6.99609 21.6961 1.59375 14.4629 2.28515C7.70596 2.92968 2.28397 8.93554 2.89556 16.2129C3.47775 23.0977 9.07616 27.2227 13.4573 27.7617C13.4573 27.2637 13.4573 26.7656 13.4573 26.2617C13.2162 26.2969 12.9986 26.3262 12.7869 26.3496C11.2108 26.5254 9.95826 25.8223 9.25846 24.4219C8.87621 23.6543 8.47044 22.8867 7.71772 22.3945C7.63539 22.3418 7.58834 22.2422 7.51777 22.1543C7.58246 22.1074 7.61187 22.084 7.64715 22.0664C7.69419 22.0488 7.74124 22.043 7.78829 22.0371C8.31755 22.002 8.81741 22.0957 9.21141 22.4648C9.47016 22.7051 9.70539 22.9922 9.89945 23.291C10.6404 24.4453 11.9165 24.9316 13.2162 24.5449C13.3926 24.4922 13.4925 24.416 13.5102 24.2109C13.5455 23.6602 13.6984 23.1387 13.9983 22.7168Z" fill="url(#paint0_linear_5_163)"/>
</g>
<defs>
<linearGradient id="paint0_linear_5_163" x1="15.7038" y1="0.508759" x2="15.7038" y2="29.719" gradientUnits="userSpaceOnUse">
<stop stop-color="#00C383"/>
<stop offset="1" stop-color="#00BB55"/>
</linearGradient>
<clipPath id="clip0_5_163">
<rect width="30.1091" height="30" fill="white" transform="translate(0.472717)"/>
</clipPath>
</defs>
</svg>
