<svg width="40" height="40" viewBox="0 0 40 40" fill="none" xmlns="http://www.w3.org/2000/svg">
<path d="M12.85 1.25C10.298 2.219 7.965 3.753 5.85 5.85C1.95 9.75 0 14.467 0 20C0 25.533 1.95 30.234 5.85 34.1C9.783 38.033 14.5 40 20 40C25.533 40 30.25 38.033 34.15 34.1C38.051 30.234 40 25.533 40 20C40 14.467 38.051 9.75 34.15 5.85C32.052 3.753 29.718 2.219 27.15 1.25C24.941 0.417 22.559 0 20 0C17.458 0 15.074 0.417 12.85 1.25Z" fill="#73283C"/>
<path d="M21.0059 8.67146C21.6074 7.6988 21.9082 6.85403 21.9082 6.13766C21.9082 5.4213 21.6074 4.57227 21.0059 3.59085L20.0908 2.33058L19.189 3.59085C18.5875 4.57227 18.2866 5.4213 18.2866 6.13766C18.2866 6.85403 18.5875 7.6988 19.189 8.67146C19.4893 9.16708 19.7899 9.58709 20.0908 9.93227C20.3911 9.58709 20.6968 9.16708 21.0059 8.67146Z" fill="white"/>
<path d="M23.3399 9.17584C22.2539 9.52049 21.4609 9.9848 20.9663 10.569C20.6217 10.9758 20.3166 11.5592 20.0512 12.3199C19.8032 11.568 19.5028 10.9845 19.1489 10.569C18.6451 9.98506 17.8536 9.52075 16.7743 9.17584L15.3018 8.83066L15.5939 10.5552C15.886 11.8203 16.2837 12.7486 16.7878 13.3414C17.345 13.9956 18.2516 14.4958 19.5076 14.8404L20.0515 14.9733L20.6082 14.8404C21.8636 14.4958 22.7697 13.9956 23.3285 13.3414C23.8225 12.7486 24.221 11.8203 24.5219 10.5552L24.8129 8.83066C24.3712 8.88399 23.8809 8.99913 23.3399 9.17584Z" fill="white"/>
<path d="M24.7871 14.7245C24.3322 14.7708 23.8324 14.8607 23.289 14.9969C22.1995 15.3605 21.4042 15.8371 20.9044 16.4268C20.5871 16.8354 20.2916 17.425 20.0192 18.1972C19.7468 17.425 19.4513 16.8354 19.134 16.4268C18.5892 15.8371 17.7953 15.3605 16.7507 14.9969L15.2527 14.7245L15.5251 16.4268C15.8424 17.6974 16.2509 18.6289 16.7507 19.2186C17.2042 19.7171 17.8852 20.1488 18.7935 20.5124V23.0318H21.2449V20.5124C22.1532 20.1488 22.8328 19.7184 23.2877 19.2186C23.7861 18.6289 24.1729 17.6974 24.4439 16.4268L24.7871 14.7245Z" fill="white"/>
<path d="M12.4819 32.9004V28.8486H11.7832V28.2334H12.4819V27.7368C12.4819 27.4233 12.5098 27.1904 12.5654 27.0381C12.6416 26.833 12.7749 26.6675 12.9653 26.5415C13.1587 26.4126 13.4282 26.3481 13.7739 26.3481C13.9966 26.3481 14.2427 26.3745 14.5122 26.4272L14.3936 27.1172C14.2295 27.0879 14.0742 27.0732 13.9277 27.0732C13.6875 27.0732 13.5176 27.1245 13.418 27.2271C13.3184 27.3296 13.2686 27.5215 13.2686 27.8027V28.2334H14.1782V28.8486H13.2686V32.9004H12.4819ZM14.7891 32.9004V28.2334H15.501V28.9409C15.6826 28.6099 15.8496 28.3916 16.002 28.2861C16.1572 28.1807 16.3271 28.1279 16.5117 28.1279C16.7783 28.1279 17.0493 28.2129 17.3247 28.3828L17.0522 29.1167C16.8589 29.0024 16.6655 28.9453 16.4722 28.9453C16.2993 28.9453 16.144 28.998 16.0063 29.1035C15.8687 29.2061 15.7705 29.3496 15.7119 29.5342C15.624 29.8154 15.5801 30.123 15.5801 30.457V32.9004H14.7891ZM20.9897 31.3975L21.8071 31.4985C21.6782 31.9761 21.4395 32.3467 21.0908 32.6104C20.7422 32.874 20.2969 33.0059 19.7549 33.0059C19.0723 33.0059 18.5303 32.7964 18.1289 32.3774C17.7305 31.9556 17.5312 31.3652 17.5312 30.6064C17.5312 29.8213 17.7334 29.2119 18.1377 28.7783C18.542 28.3447 19.0664 28.1279 19.7109 28.1279C20.335 28.1279 20.8447 28.3403 21.2402 28.7651C21.6357 29.1899 21.8335 29.7876 21.8335 30.5581C21.8335 30.605 21.832 30.6753 21.8291 30.769H18.3486C18.3779 31.2817 18.5229 31.6743 18.7837 31.9468C19.0444 32.2192 19.3696 32.3555 19.7593 32.3555C20.0493 32.3555 20.2969 32.2793 20.502 32.127C20.707 31.9746 20.8696 31.7314 20.9897 31.3975ZM18.3926 30.1187H20.9985C20.9634 29.7261 20.8638 29.4316 20.6997 29.2354C20.4478 28.9307 20.1211 28.7783 19.7197 28.7783C19.3564 28.7783 19.0503 28.8999 18.8013 29.1431C18.5552 29.3862 18.4189 29.7114 18.3926 30.1187ZM25.9995 31.3975L26.8169 31.4985C26.688 31.9761 26.4492 32.3467 26.1006 32.6104C25.752 32.874 25.3066 33.0059 24.7646 33.0059C24.082 33.0059 23.54 32.7964 23.1387 32.3774C22.7402 31.9556 22.541 31.3652 22.541 30.6064C22.541 29.8213 22.7432 29.2119 23.1475 28.7783C23.5518 28.3447 24.0762 28.1279 24.7207 28.1279C25.3447 28.1279 25.8545 28.3403 26.25 28.7651C26.6455 29.1899 26.8433 29.7876 26.8433 30.5581C26.8433 30.605 26.8418 30.6753 26.8389 30.769H23.3584C23.3877 31.2817 23.5327 31.6743 23.7935 31.9468C24.0542 32.2192 24.3794 32.3555 24.769 32.3555C25.0591 32.3555 25.3066 32.2793 25.5117 32.127C25.7168 31.9746 25.8794 31.7314 25.9995 31.3975ZM23.4023 30.1187H26.0083C25.9731 29.7261 25.8735 29.4316 25.7095 29.2354C25.4575 28.9307 25.1309 28.7783 24.7295 28.7783C24.3662 28.7783 24.0601 28.8999 23.811 29.1431C23.5649 29.3862 23.4287 29.7114 23.4023 30.1187Z" fill="white"/>
</svg>
