<svg width="25" height="25" viewBox="0 0 25 25" fill="none" xmlns="http://www.w3.org/2000/svg">
<path d="M12.6514 0.429598C19.4092 0.395419 24.9707 6.01554 24.8096 12.8857C24.6631 19.4335 19.2383 24.8534 12.4805 24.7704C5.81056 24.6874 0.307626 19.1308 0.483407 12.2704C0.649422 5.75186 6.0254 0.400302 12.6514 0.429598ZM1.9629 12.6171C2.02149 18.7353 6.98243 23.4472 12.8418 23.3398C18.5205 23.2372 23.3252 18.6034 23.3203 12.5927C23.3203 6.46964 18.3154 1.74308 12.4414 1.85538C6.75782 1.96768 1.99708 6.60636 1.9629 12.6171Z" fill="white"/>
<path d="M19.6289 7.35352C19.6289 10.8252 19.6289 14.2822 19.6289 17.7539C14.9854 17.7539 10.3418 17.7539 5.68359 17.7539C5.68359 14.2969 5.68359 10.835 5.68359 7.35352C10.3174 7.35352 14.9609 7.35352 19.6289 7.35352ZM12.6855 13.7061C12.3584 13.4326 12.0459 13.1836 11.7529 12.915C11.6162 12.7881 11.5283 12.7979 11.3867 12.9102C10.2393 13.8428 9.08203 14.7656 7.93457 15.6982C7.87109 15.7471 7.83203 15.8594 7.82715 15.9424C7.81738 16.4209 7.83203 16.9043 7.81738 17.3828C7.80762 17.6074 7.87598 17.6709 8.10059 17.666C11.1865 17.6562 14.2676 17.6611 17.3535 17.6611C17.4365 17.6611 17.5244 17.6611 17.6221 17.6611C17.6221 16.9971 17.627 16.3672 17.6172 15.7422C17.6172 15.6836 17.5732 15.6006 17.5195 15.5664C16.2451 14.6582 14.9609 13.75 13.6768 12.8418C13.3496 13.1299 13.0273 13.4082 12.6855 13.7061ZM12.6611 11.665C14.1064 10.2637 15.5273 8.88184 16.9971 7.45605C14.1064 7.45605 11.3037 7.45605 8.50098 7.45605C9.87793 8.84766 11.2402 10.2295 12.6611 11.665ZM17.6074 15.249C17.6074 13.2959 17.6074 11.3818 17.6074 9.43359C16.3574 10.5176 15.1318 11.5771 13.8965 12.6514C15.1514 13.5303 16.3672 14.3799 17.6074 15.249ZM11.3525 12.5732C10.1855 11.582 9.03809 10.6055 7.85156 9.59473C7.85156 11.543 7.85156 13.4326 7.85156 15.3711C9.0332 14.4287 10.1855 13.5059 11.3525 12.5732Z" fill="white"/>
</svg>
