<svg width="31" height="30" viewBox="0 0 31 30" fill="none" xmlns="http://www.w3.org/2000/svg">
<path d="M29.6974 15.0586C29.6974 17.0976 29.6563 19.1426 29.7092 21.1816C29.7974 24.791 27.5216 27.5801 24.6224 28.8223C23.458 29.3203 22.2349 29.584 20.9705 29.584C17.0128 29.5898 13.0492 29.6426 9.09153 29.5664C6.11003 29.5078 3.65778 28.2656 1.89946 25.8164C0.976192 24.5273 0.535141 23.0625 0.535141 21.4746C0.535141 17.2734 0.535141 13.0781 0.535141 8.87695C0.535141 5.44921 2.21114 3.05273 5.18676 1.49413C6.48051 0.820306 7.88599 0.533196 9.35028 0.527337C13.1904 0.527337 17.0363 0.503899 20.8764 0.539056C23.8579 0.562493 26.3455 1.69921 28.1802 4.08984C29.2035 5.42577 29.6974 6.96093 29.6974 8.64843C29.6974 10.7812 29.6974 12.9199 29.6974 15.0586ZM2.70511 15.0586C2.70511 17.209 2.70511 19.3535 2.70511 21.5039C2.70511 22.4648 2.92858 23.3672 3.42844 24.1816C4.73983 26.3203 6.72162 27.3633 9.17974 27.4043C13.1257 27.4629 17.0775 27.4277 21.0293 27.416C21.9996 27.416 22.9405 27.2168 23.8168 26.8008C26.2043 25.6641 27.5392 23.8535 27.5275 21.1348C27.504 16.9746 27.5216 12.8144 27.5216 8.65429C27.5216 7.47656 27.1864 6.39843 26.4866 5.44921C25.134 3.62695 23.264 2.73046 21.0293 2.70702C17.0893 2.66015 13.1492 2.68945 9.20915 2.69531C8.36821 2.69531 7.55668 2.86523 6.76866 3.1582C4.60457 3.96093 2.59338 5.99413 2.68747 8.98827C2.75804 11.0156 2.70511 13.0371 2.70511 15.0586Z" fill="url(#paint0_linear_4_136)"/>
<path d="M15.1486 21.2695C11.3556 21.2695 8.29764 18.2578 8.29176 14.5078C8.28588 10.8164 11.3674 7.79296 15.1369 7.79296C18.9181 7.7871 21.9879 10.8047 21.9937 14.5254C21.9937 18.2402 18.9299 21.2637 15.1486 21.2695ZM15.1486 19.1016C17.7303 19.1016 19.8238 17.0449 19.8179 14.5137C19.812 12.0059 17.7185 9.95507 15.1486 9.95507C12.567 9.95507 10.4617 12 10.4617 14.5254C10.4676 17.0566 12.567 19.1074 15.1486 19.1016Z" fill="url(#paint1_linear_4_136)"/>
<path d="M22.7876 5.74219C23.5815 5.74219 24.2284 6.41602 24.2284 7.24219C24.2225 8.06836 23.5698 8.73633 22.7759 8.73047C21.9938 8.72461 21.3528 8.05664 21.3528 7.24805C21.3469 6.42187 21.9938 5.74219 22.7876 5.74219Z" fill="url(#paint2_linear_4_136)"/>
<defs>
<linearGradient id="paint0_linear_4_136" x1="15.1234" y1="0.519684" x2="15.1234" y2="29.6072" gradientUnits="userSpaceOnUse">
<stop stop-color="#00C383"/>
<stop offset="1" stop-color="#00BB55"/>
</linearGradient>
<linearGradient id="paint1_linear_4_136" x1="15.1427" y1="7.79295" x2="15.1427" y2="21.2695" gradientUnits="userSpaceOnUse">
<stop stop-color="#00C383"/>
<stop offset="1" stop-color="#00BB55"/>
</linearGradient>
<linearGradient id="paint2_linear_4_136" x1="22.7906" y1="5.74219" x2="22.7906" y2="8.73051" gradientUnits="userSpaceOnUse">
<stop stop-color="#00C383"/>
<stop offset="1" stop-color="#00BB55"/>
</linearGradient>
</defs>
</svg>
