<svg width="30" height="20" viewBox="0 0 30 20" fill="none" xmlns="http://www.w3.org/2000/svg">
<g clip-path="url(#clip0_17_1279)">
<path d="M2.71875 0H27.2344C28.7812 0 30 1.21875 30 2.67187V17.0156C30 18.5156 28.7813 19.6875 27.2813 19.6875H2.71875C1.21875 19.6875 0 18.4687 0 17.0156V2.67187C0 1.21875 1.21875 0 2.71875 0Z" fill="white"/>
<path d="M2.71875 19.6875H9.98438V0H2.71875C1.21875 0 0 1.21875 0 2.67188V17.0625C0 18.5156 1.21875 19.7344 2.71875 19.6875Z" fill="#CC0000"/>
<path d="M27.2813 19.6875H20.0156V0H27.2813C28.7813 0 30 1.21875 30 2.67188V17.0625C30 18.5156 28.7813 19.7344 27.2813 19.6875Z" fill="#CC0000"/>
</g>
<defs>
<clipPath id="clip0_17_1279">
<rect width="30" height="19.6875" fill="white"/>
</clipPath>
</defs>
</svg>
