<svg width="40" height="40" viewBox="0 0 40 40" fill="none" xmlns="http://www.w3.org/2000/svg">
<path d="M12.9 1.25C10.3 2.217 7.95 3.75 5.85 5.851C1.95 9.75 0 14.467 0 20C0 25.533 1.95 30.233 5.85 34.101C9.783 38.033 14.5 40 20 40C25.533 40 30.25 38.033 34.15 34.101C38.051 30.233 40 25.533 40 20C40 14.467 38.051 9.75 34.15 5.851C32.05 3.75 29.716 2.217 27.15 1.25C24.949 0.417 22.566 0 20 0C17.466 0 15.1 0.417 12.9 1.25Z" fill="#1A6DAB"/>
<path d="M22.8691 13.244C21.5428 12.5928 20.0552 12.2674 18.4039 12.2674C17.1983 12.2674 15.8127 12.8398 14.2456 13.9853C13.0401 14.8535 11.9557 15.8594 10.9913 17.0049C10.4732 17.2088 9.65346 17.7216 8.53218 18.5409C7.09812 19.6015 6.38074 20.4393 6.38074 21.0547C6.38074 21.4279 6.47113 21.7959 6.65228 22.1572C7.39932 21.9521 8.05018 21.8017 8.6045 21.7052C9.14688 21.6086 9.42422 21.5909 9.43651 21.6506C9.47267 21.8079 8.64066 22.1329 6.94156 22.6272C7.53203 23.3743 8.46022 24.0071 9.72578 24.5256C10.6901 25.0079 11.9738 25.3811 13.5767 25.6465C13.4321 26.5262 13.6432 27.159 14.2095 27.5448C14.643 27.8457 15.1554 27.8887 15.7462 27.6707C16.3367 27.4667 16.8429 27.0621 17.2649 26.4597C17.3614 26.3397 17.4518 26.1882 17.5357 26.0077C18.4277 26.0681 19.1994 26.0927 19.8502 26.08C21.008 25.96 22.0509 25.6769 22.9787 25.2303C23.303 25.0741 24.1896 24.5672 25.6349 23.7116C26.6839 23.0847 27.594 22.6688 28.3653 22.4645L28.4199 22.4822C29.0584 22.7842 29.9316 23.29 31.041 24.0009C31.9453 24.3867 32.6873 24.0975 33.2655 23.1338C33.6622 22.4464 33.7598 21.4159 33.5544 20.0419C33.7594 18.6678 33.6618 17.6377 33.2655 16.9499C32.6873 15.9733 31.9453 15.6786 31.041 16.0641C29.9316 16.7869 29.0584 17.2996 28.4199 17.6012L28.2029 17.6912C27.7929 17.5827 27.1717 17.3719 26.3396 17.0584L26.195 17.0045C25.978 16.4976 25.7557 16.0698 25.5272 15.7202C25.0564 14.7081 24.1716 13.8826 22.8691 13.244ZM17.7346 20.53C17.7346 21.2409 17.5057 21.8795 17.0476 22.4461C16.5894 22.9881 16.0051 23.3562 15.2935 23.5486C16.2456 22.7538 16.7218 21.7468 16.7218 20.53C16.7218 19.3122 16.2456 18.3063 15.2935 17.5104C16.0047 17.7028 16.5894 18.0709 17.0476 18.6129C17.5057 19.1795 17.7346 19.8184 17.7346 20.53ZM11.6961 20.4754C11.4791 20.2704 11.3703 20.0173 11.3703 19.7164C11.3703 19.4264 11.4791 19.1795 11.6961 18.9752C11.9011 18.7575 12.1481 18.649 12.4373 18.649C12.7385 18.649 12.9916 18.7575 13.1967 18.9752C13.4017 19.1795 13.5044 19.4264 13.5044 19.7164C13.5044 20.0173 13.4017 20.27 13.1967 20.4754C12.9916 20.6804 12.7385 20.7832 12.4373 20.7832C12.1484 20.7832 11.9011 20.6804 11.6961 20.4754Z" fill="white"/>
</svg>
