<svg width="40" height="40" viewBox="0 0 40 40" fill="none" xmlns="http://www.w3.org/2000/svg">
<path d="M12.4 22.101C12.567 21.267 12.967 20.583 13.6 20.05C14.233 19.55 14.916 19.333 15.65 19.401H16.05C16.317 19.467 16.5 19.334 16.6 19.001C16.633 18.668 16.5 18.468 16.2 18.401L15.8 18.351C14.8 18.25 13.9 18.55 13.1 19.25C12.267 19.884 11.717 20.75 11.45 21.851C11.417 22.184 11.55 22.401 11.85 22.5C12.15 22.533 12.333 22.4 12.4 22.101Z" fill="#FF5060"/>
<path d="M27.949 10.3C27.65 10.601 27.467 10.967 27.4 11.401C27.4 11.834 27.533 12.201 27.8 12.501L28 12.851L22 18L22.4 18.4C22.699 18.7 22.949 19.167 23.15 19.799L29.5 14.35L29.75 14.65C30.051 14.917 30.383 15.067 30.75 15.1C31.184 15.166 31.551 15.049 31.85 14.749C32.217 14.482 32.416 14.116 32.45 13.649C32.485 13.182 32.35 12.798 32.052 12.499C31.818 12.166 31.486 11.982 31.052 11.949H30.5V11.5C30.5 11.101 30.367 10.75 30.1 10.45C29.834 10.15 29.5 9.983 29.1 9.95C28.7 9.917 28.316 10.033 27.949 10.3Z" fill="white"/>
<path d="M27.15 1.25C24.949 0.417 22.566 0 20 0C17.467 0 15.101 0.417 12.9 1.25C10.3 2.217 7.95 3.75 5.85 5.851C1.95 9.75 0 14.467 0 20C0 25.533 1.95 30.233 5.85 34.101C9.783 38.033 14.5 40 20 40C25.534 40 30.25 38.033 34.151 34.101C38.051 30.233 40 25.533 40 20C40 14.467 38.051 9.75 34.15 5.851C32.051 3.75 29.717 2.217 27.15 1.25ZM18.05 16.25C19.283 16.317 20.383 16.717 21.35 17.45L26.9 12.7C26.632 12.233 26.533 11.766 26.599 11.3C26.632 10.667 26.915 10.117 27.449 9.651C27.949 9.251 28.517 9.068 29.15 9.101C29.849 9.167 30.382 9.451 30.75 9.951C31.051 10.284 31.234 10.684 31.301 11.151C31.867 11.251 32.317 11.517 32.651 11.951C33.118 12.484 33.317 13.068 33.251 13.701C33.218 14.368 32.935 14.918 32.401 15.351C31.901 15.784 31.335 15.984 30.7 15.951C30.2 15.885 29.784 15.718 29.45 15.451L23.35 20.701C23.518 22.034 23.401 23.568 23 25.301C22.6 26.935 22.084 28.168 21.449 29.001C20.716 30.034 20.032 30.784 19.4 31.251C18.533 31.918 17.617 32.218 16.65 32.151C15.883 32.084 15.15 31.834 14.45 31.401C13.417 30.833 12.2 29.8 10.8 28.3C9.5 26.867 8.883 24.984 8.95 22.651C9.017 20.184 9.95 18.534 11.75 17.701C13.45 16.868 15.1 16.385 16.7 16.251C17.167 16.184 17.617 16.184 18.05 16.25Z" fill="#FF5060"/>
<path d="M21.35 17.45C20.384 16.717 19.284 16.317 18.05 16.25C17.617 16.184 17.167 16.184 16.7 16.25C15.1 16.384 13.45 16.867 11.75 17.7C9.94999 18.533 9.01699 20.183 8.94999 22.65C8.88299 24.983 9.49999 26.867 10.8 28.3C12.2 29.8 13.417 30.833 14.45 31.401C15.15 31.834 15.884 32.084 16.65 32.151C17.617 32.217 18.533 31.918 19.4 31.251C20.033 30.784 20.716 30.034 21.449 29.001C22.084 28.168 22.599 26.935 23 25.301C23.4 23.569 23.518 22.034 23.35 20.701L29.45 15.451C29.784 15.718 30.2 15.885 30.7 15.951C31.335 15.984 31.901 15.784 32.401 15.351C32.934 14.917 33.217 14.368 33.251 13.701C33.317 13.068 33.118 12.484 32.651 11.951C32.317 11.517 31.868 11.251 31.301 11.151C31.235 10.684 31.051 10.284 30.75 9.951C30.383 9.451 29.85 9.168 29.15 9.101C28.517 9.068 27.949 9.25 27.449 9.651C26.916 10.118 26.633 10.668 26.599 11.3C26.533 11.767 26.632 12.234 26.9 12.7L21.35 17.45ZM29.1 9.95C29.5 9.983 29.834 10.15 30.1 10.45C30.368 10.75 30.5 11.1 30.5 11.5V11.95H31.051C31.485 11.983 31.817 12.167 32.051 12.5C32.35 12.8 32.485 13.184 32.449 13.65C32.416 14.117 32.217 14.483 31.849 14.75C31.55 15.05 31.183 15.167 30.749 15.101C30.382 15.068 30.05 14.917 29.749 14.651L29.499 14.351L23.15 19.8C22.949 19.167 22.699 18.7 22.4 18.401L22 18L28 12.851L27.801 12.5C27.533 12.2 27.401 11.833 27.401 11.4C27.467 10.966 27.651 10.6 27.95 10.299C28.316 10.033 28.699 9.917 29.1 9.95ZM13.6 20.05C12.967 20.583 12.566 21.267 12.4 22.101C12.333 22.401 12.15 22.534 11.85 22.5C11.55 22.4 11.416 22.184 11.45 21.851C11.717 20.75 12.267 19.884 13.1 19.25C13.9 18.55 14.8 18.25 15.8 18.351L16.2 18.401C16.5 18.467 16.634 18.668 16.6 19.001C16.5 19.334 16.316 19.468 16.05 19.401H15.65C14.917 19.333 14.233 19.55 13.6 20.05Z" fill="white"/>
</svg>
