<svg width="40" height="40" viewBox="0 0 40 40" fill="none" xmlns="http://www.w3.org/2000/svg">
<path d="M12.899 1.25C10.299 2.217 7.95 3.75 5.849 5.85C1.95 9.75 0 14.467 0 20C0 25.533 1.95 30.232 5.85 34.1C9.783 38.033 14.5 40 20 40C25.533 40 30.25 38.033 34.148 34.1C38.05 30.232 40 25.533 40 20C40 14.467 38.05 9.75 34.148 5.85C32.048 3.75 29.715 2.217 27.148 1.25C24.949 0.417 22.566 0 20 0C17.467 0 15.1 0.417 12.899 1.25Z" fill="#1A6DAB"/>
<path d="M13.685 10.127L13.554 8.817C13.35 8.934 13.293 9.283 13.38 9.865C13.409 10.069 13.438 10.214 13.467 10.302C13.554 10.36 13.627 10.302 13.685 10.127ZM22.894 6.156C22.603 6.04 22.006 5.865 21.104 5.632C20.698 5.516 20.364 5.458 20.101 5.458C19.81 5.429 19.46 5.429 19.054 5.458C18.297 5.516 17.41 5.646 16.392 5.851C16.334 5.851 16.261 5.866 16.174 5.895C16.087 5.953 16.028 5.981 16 5.981C15.971 6.01 15.913 6.039 15.825 6.068C15.737 6.097 15.621 6.112 15.476 6.112C14.602 6.2 14.02 6.345 13.729 6.549C13.583 6.636 13.496 6.708 13.467 6.768C13.438 6.854 13.438 6.971 13.467 7.117V7.247C13.554 7.247 13.656 7.219 13.773 7.161C13.889 7.132 13.991 7.074 14.079 6.986C14.487 7.277 14.777 7.815 14.952 8.601C14.981 8.688 15.04 8.95 15.127 9.386C15.155 9.649 15.199 9.823 15.258 9.91C15.287 10.172 15.389 10.478 15.564 10.827C15.622 10.943 15.665 10.986 15.695 10.957C15.782 10.929 15.81 10.769 15.782 10.478C15.869 10.186 15.796 9.736 15.564 9.125C15.331 8.513 15.214 8.165 15.214 8.078C15.942 7.699 16.407 7.816 16.611 8.427C16.698 8.601 16.785 8.878 16.873 9.255C16.931 9.634 16.974 9.881 17.003 9.998C17.091 10.347 17.236 10.681 17.44 11.001C17.702 11.379 17.877 11.308 17.964 10.783C18.022 10.666 18.007 10.449 17.92 10.128C17.804 9.779 17.716 9.532 17.658 9.386C17.6 9.125 17.6 8.979 17.658 8.949C17.775 8.891 18.007 8.993 18.357 9.254C18.415 9.429 18.561 9.734 18.793 10.171C19.026 10.578 19.171 10.855 19.23 11C19.405 10.971 19.536 10.913 19.624 10.825C19.885 10.766 20.074 10.593 20.19 10.302C20.074 10.156 19.915 10.01 19.711 9.864C19.65 9.749 19.665 9.69 19.752 9.69C19.781 9.69 19.913 9.719 20.146 9.778C20.64 9.864 20.931 9.778 21.019 9.515C21.135 9.429 21.281 9.283 21.456 9.078C21.63 8.846 21.746 8.7 21.805 8.641C21.921 8.525 22.038 8.482 22.154 8.511C22.3 8.569 22.46 8.714 22.634 8.948C22.809 9.18 23.2 9.632 23.813 10.301C24.336 10.854 24.686 11.319 24.86 11.698C25.093 11.989 25.137 12.12 24.991 12.09C24.904 12.061 24.671 11.916 24.293 11.653C23.914 11.392 23.654 11.247 23.508 11.217C23.275 11.13 23.201 11.246 23.289 11.566C23.027 12.352 23.013 13.327 23.245 14.489C23.449 15.712 23.871 16.846 24.511 17.893C25.21 19.087 26.039 19.988 26.998 20.599C28.104 21.326 29.269 21.603 30.49 21.428C30.723 21.428 30.868 21.444 30.926 21.472C30.987 21.531 30.969 21.603 30.883 21.691C30.709 21.894 30.316 22.113 29.704 22.345C28.948 22.606 28.148 22.767 27.305 22.824C26.229 22.912 25.195 22.839 24.206 22.605C23.798 22.46 23.406 22.242 23.027 21.951C22.59 21.514 22.241 21.195 21.98 20.991C21.63 20.641 21.397 20.293 21.282 19.944C21.136 19.594 21.02 19.376 20.932 19.289C20.873 19.289 20.816 19.246 20.758 19.158C20.641 19.013 20.555 18.911 20.495 18.851C20.029 18.59 19.695 18.401 19.492 18.285C19.172 18.11 18.779 17.98 18.314 17.892C18.139 17.892 17.95 17.863 17.747 17.805C16.815 17.718 15.914 17.98 15.041 18.591C14.109 19.261 13.455 20.221 13.077 21.472C13.048 21.006 12.873 20.571 12.553 20.162C12.262 19.813 12.088 19.608 12.029 19.551L11.331 19.333C10.837 19.217 10.487 19.13 10.284 19.071C9.964 18.956 9.673 18.868 9.411 18.81C8.975 18.723 8.669 18.664 8.494 18.635C8.231 18.579 8.1 18.534 8.1 18.506C8.1 18.477 8.115 18.447 8.143 18.419C8.201 18.419 8.244 18.419 8.274 18.419C8.449 18.419 9.088 18.55 10.194 18.812C11.271 19.073 11.94 19.249 12.202 19.335L12.726 19.553L13.948 18.724C14.646 18.229 15.272 17.894 15.824 17.72C16.348 17.575 16.959 17.517 17.657 17.546C18.414 17.604 18.995 17.72 19.403 17.895C19.81 18.041 20.246 18.303 20.712 18.681L21.018 18.943C21.047 18.915 21.076 18.884 21.105 18.855L21.237 16.805C21.295 16.31 21.324 15.947 21.324 15.713L21.456 14.754C21.456 14.318 21.441 13.896 21.412 13.488C21.266 12.847 21.149 12.354 21.061 12.005C20.886 11.452 20.668 10.986 20.408 10.608L20.276 10.869C20.189 11.044 20.073 11.176 19.927 11.262C19.752 11.379 19.519 11.437 19.228 11.437C18.878 11.584 18.587 11.599 18.354 11.482C18.092 11.511 17.831 11.584 17.568 11.701C17.394 11.787 17.248 11.846 17.132 11.875C17.015 11.904 16.884 11.904 16.739 11.875C16.564 11.934 16.39 11.962 16.216 11.962C16.041 11.933 15.866 11.889 15.692 11.831C14.848 11.743 14.135 11.54 13.553 11.22C12.825 10.87 12.462 10.406 12.462 9.823V9.778C12.433 9.458 12.462 8.978 12.55 8.338H12.593C12.593 8.163 12.622 8.017 12.68 7.901C12.739 7.464 12.811 7.158 12.898 6.984C12.957 6.809 13.058 6.664 13.204 6.547C13.437 6.372 13.801 6.227 14.295 6.11C14.79 5.935 15.197 5.847 15.517 5.847C15.634 5.847 15.735 5.847 15.823 5.847C15.91 5.819 15.954 5.79 15.954 5.761C15.983 5.702 16.245 5.63 16.74 5.542C17.264 5.456 17.963 5.368 18.835 5.28C19.272 5.222 19.591 5.193 19.795 5.193C20.027 5.193 20.231 5.208 20.405 5.237C20.58 5.295 20.827 5.354 21.146 5.412C21.438 5.471 21.743 5.543 22.064 5.63C22.383 5.747 22.63 5.834 22.805 5.893C23.125 6.038 23.388 6.227 23.591 6.459C23.765 6.663 24.231 7.332 24.987 8.467C25.569 9.398 25.918 9.922 26.034 10.038L27.387 11.523C27.941 12.105 28.653 12.876 29.526 13.836C29.789 14.098 30.035 14.36 30.268 14.622C30.501 14.883 30.647 15.059 30.705 15.145C30.821 15.32 31.01 15.568 31.272 15.888C31.737 16.44 32.16 17.096 32.538 17.852C32.888 18.579 33.105 19.249 33.193 19.859C33.221 20.121 33.28 20.383 33.366 20.644C33.454 20.907 33.542 21.109 33.629 21.255C33.831 21.574 33.935 21.881 33.935 22.171C33.964 22.434 33.891 22.754 33.717 23.132C33.513 23.569 33.062 24.049 32.363 24.571C31.637 25.066 30.879 25.46 30.093 25.75C29.774 25.837 29.352 25.998 28.827 26.23C28.304 26.434 27.838 26.652 27.431 26.885C26.267 27.437 24.93 27.961 23.417 28.455C21.904 28.921 20.507 29.226 19.227 29.371C18.703 29.43 18.223 29.488 17.787 29.546H17.307C16.55 29.605 15.823 29.618 15.125 29.59C14.95 29.561 14.121 29.444 12.637 29.241C11.619 29.095 10.775 29.023 10.106 29.023H10.062L9.32 30.07C8.971 30.565 8.622 30.943 8.273 31.205C7.982 31.408 7.821 31.438 7.793 31.291L7.75 25.795C7.75 25.592 7.852 25.401 8.056 25.227C8.172 25.141 8.39 25.025 8.711 24.879C9.176 24.704 9.453 24.602 9.54 24.572C9.832 24.427 10.05 24.267 10.195 24.092C9.148 23.54 8.537 23.133 8.362 22.871C8.245 22.608 8.42 22.478 8.886 22.478C9.293 22.448 9.817 22.493 10.457 22.608C11.039 22.696 11.417 22.784 11.591 22.871C13.832 24.035 15.854 24.297 17.658 23.656C18.24 23.424 18.807 23.089 19.36 22.652C19.884 22.187 20.203 21.911 20.32 21.823C20.174 22.434 19.781 22.958 19.141 23.394C18.675 23.714 18.021 24.02 17.177 24.311C16.275 24.572 15.65 24.761 15.301 24.878C14.748 25.11 14.458 25.344 14.428 25.576C14.981 26.186 16.639 26.564 19.403 26.71C20.421 26.769 21.497 26.798 22.632 26.798C23.534 26.798 24.278 26.769 24.859 26.71C24.771 26.187 24.538 25.765 24.161 25.444C23.986 25.299 23.709 25.11 23.332 24.878C22.722 24.499 22.299 24.223 22.067 24.049C22.356 24.194 22.88 24.311 23.637 24.398C24.393 24.514 25.237 24.572 26.167 24.572C28.466 24.631 30.299 24.457 31.666 24.05C32.073 23.962 32.423 23.787 32.713 23.526C32.918 23.352 33.135 23.148 33.367 22.916C33.367 22.827 33.412 22.77 33.499 22.741C33.645 22.653 33.688 22.449 33.63 22.13C33.602 21.839 33.514 21.563 33.367 21.3C33.281 21.185 33.194 20.995 33.107 20.734C33.019 20.472 32.946 20.211 32.888 19.949C32.771 19.279 32.539 18.581 32.19 17.854C31.839 17.098 31.432 16.442 30.966 15.89C30.705 15.599 30.517 15.351 30.4 15.147C30.341 15.061 30.197 14.885 29.964 14.624C29.731 14.361 29.468 14.1 29.178 13.838C28.48 13.052 27.782 12.281 27.083 11.525C26.355 10.71 25.904 10.23 25.73 10.084C25.671 10.056 25.613 9.997 25.555 9.909C25.527 9.881 25.511 9.852 25.511 9.823C25.511 9.794 25.248 9.386 24.725 8.601C24.261 7.903 23.896 7.335 23.635 6.898C23.432 6.549 23.186 6.302 22.894 6.156Z" fill="white"/>
</svg>
