<svg width="30" height="30" viewBox="0 0 30 30" fill="none" xmlns="http://www.w3.org/2000/svg">
<path d="M11.25 0C10.875 0 10.625 0.125 10.375 0.375L0.375 10.375C0.125 10.625 0 10.875 0 11.25C0 11.625 0.125 11.875 0.375 12.125L2.125 13.875C2.375 14.125 2.75 14.25 3 14.25C3.375 14.25 3.625 14.125 3.875 13.875L6.375 11.375C6.75 11 7.5 11.25 7.5 11.875V28.75C7.5 29.375 8.125 30 8.75 30H11.25C11.875 30 12.5 29.375 12.5 28.75V1.25C12.5 0.875 12.375 0.625 12.125 0.375C11.875 0.125 11.625 0 11.25 0Z" fill="#00C383"/>
<path d="M29.625 17.875L27.875 16.125C27.625 15.875 27.25 15.75 27 15.75C26.625 15.75 26.375 15.875 26.125 16.125L23.625 18.625C23.25 19 22.5 18.75 22.5 18.125V1.25C22.5 0.625 21.875 0 21.25 0H18.75C18.125 0 17.5 0.625 17.5 1.25V28.75C17.5 29.125 17.625 29.375 17.875 29.625C18.125 29.875 18.5 30 18.75 30C19.125 30 19.375 29.875 19.625 29.625L29.625 19.625C29.875 19.375 30 19.125 30 18.75C30 18.375 29.875 18.125 29.625 17.875Z" fill="#00C383"/>
</svg>
