<svg width="40" height="40" viewBox="0 0 40 40" fill="none" xmlns="http://www.w3.org/2000/svg">
<path d="M12.899 1.25C10.299 2.217 7.95 3.75 5.849 5.85C1.95 9.75 0 14.467 0 20C0 25.533 1.95 30.233 5.85 34.1C9.783 38.033 14.5 40 20 40C25.533 40 30.25 38.033 34.149 34.1C38.05 30.233 40 25.533 40 20C40 14.467 38.05 9.75 34.149 5.85C32.049 3.75 29.716 2.217 27.149 1.25C24.949 0.417 22.566 0 20 0C17.467 0 15.1 0.417 12.899 1.25Z" fill="#845EC2"/>
<path d="M12.4814 32.9004V28.8486H11.7827V28.2334H12.4814V27.7368C12.4814 27.4233 12.5093 27.1904 12.5649 27.0381C12.6411 26.833 12.7744 26.6675 12.9648 26.5415C13.1582 26.4126 13.4277 26.3481 13.7734 26.3481C13.9961 26.3481 14.2422 26.3745 14.5117 26.4272L14.3931 27.1172C14.229 27.0879 14.0737 27.0732 13.9272 27.0732C13.687 27.0732 13.5171 27.1245 13.4175 27.2271C13.3179 27.3296 13.2681 27.5215 13.2681 27.8027V28.2334H14.1777V28.8486H13.2681V32.9004H12.4814ZM14.7886 32.9004V28.2334H15.5005V28.9409C15.6821 28.6099 15.8491 28.3916 16.0015 28.2861C16.1567 28.1807 16.3267 28.1279 16.5112 28.1279C16.7778 28.1279 17.0488 28.2129 17.3242 28.3828L17.0518 29.1167C16.8584 29.0024 16.665 28.9453 16.4717 28.9453C16.2988 28.9453 16.1436 28.998 16.0059 29.1035C15.8682 29.2061 15.77 29.3496 15.7114 29.5342C15.6235 29.8154 15.5796 30.123 15.5796 30.457V32.9004H14.7886ZM20.9893 31.3975L21.8066 31.4985C21.6777 31.9761 21.439 32.3467 21.0903 32.6104C20.7417 32.874 20.2964 33.0059 19.7544 33.0059C19.0718 33.0059 18.5298 32.7964 18.1284 32.3774C17.73 31.9556 17.5308 31.3652 17.5308 30.6064C17.5308 29.8213 17.7329 29.2119 18.1372 28.7783C18.5415 28.3447 19.0659 28.1279 19.7104 28.1279C20.3345 28.1279 20.8442 28.3403 21.2397 28.7651C21.6353 29.1899 21.833 29.7876 21.833 30.5581C21.833 30.605 21.8315 30.6753 21.8286 30.769H18.3481C18.3774 31.2817 18.5225 31.6743 18.7832 31.9468C19.0439 32.2192 19.3691 32.3555 19.7588 32.3555C20.0488 32.3555 20.2964 32.2793 20.5015 32.127C20.7065 31.9746 20.8691 31.7314 20.9893 31.3975ZM18.3921 30.1187H20.998C20.9629 29.7261 20.8633 29.4316 20.6992 29.2354C20.4473 28.9307 20.1206 28.7783 19.7192 28.7783C19.356 28.7783 19.0498 28.8999 18.8008 29.1431C18.5547 29.3862 18.4185 29.7114 18.3921 30.1187ZM25.999 31.3975L26.8164 31.4985C26.6875 31.9761 26.4487 32.3467 26.1001 32.6104C25.7515 32.874 25.3062 33.0059 24.7642 33.0059C24.0815 33.0059 23.5396 32.7964 23.1382 32.3774C22.7397 31.9556 22.5405 31.3652 22.5405 30.6064C22.5405 29.8213 22.7427 29.2119 23.147 28.7783C23.5513 28.3447 24.0757 28.1279 24.7202 28.1279C25.3442 28.1279 25.854 28.3403 26.2495 28.7651C26.645 29.1899 26.8428 29.7876 26.8428 30.5581C26.8428 30.605 26.8413 30.6753 26.8384 30.769H23.3579C23.3872 31.2817 23.5322 31.6743 23.793 31.9468C24.0537 32.2192 24.3789 32.3555 24.7686 32.3555C25.0586 32.3555 25.3062 32.2793 25.5112 32.127C25.7163 31.9746 25.8789 31.7314 25.999 31.3975ZM23.4019 30.1187H26.0078C25.9727 29.7261 25.873 29.4316 25.709 29.2354C25.457 28.9307 25.1304 28.7783 24.729 28.7783C24.3657 28.7783 24.0596 28.8999 23.8105 29.1431C23.5645 29.3862 23.4282 29.7114 23.4019 30.1187Z" fill="white" fill-opacity="0.995633"/>
<path d="M10.3835 8.07054L10.33 8.04349V15.2132L14.361 17.4049L14.3886 17.4319L14.4698 17.4049L21.0448 16.512V9.39584L16.9315 7.17709L10.3835 8.07054Z" fill="white" fill-opacity="0.995633"/>
<path d="M10.3835 8.09707L10.33 8.07002C10.2753 8.07002 10.2304 8.11493 10.1941 8.20531L10.1676 15.3485C10.1676 15.3848 10.1941 15.4302 10.2488 15.4838L14.4422 17.7567L14.5233 17.7296L21.0448 16.8097C21.1346 16.8097 21.1795 16.7642 21.1795 16.6744L21.2071 9.55819H21.1795V9.50409L21.1519 9.44995L21.1243 9.4229L17.0121 7.17657H16.9044L10.3835 8.09707ZM20.5837 9.47756L14.4692 10.3158L10.817 8.31407L16.905 7.47529L20.5837 9.47756ZM14.6056 10.614L20.9095 9.72109L20.883 16.5401L14.5785 17.4325L14.6056 10.614ZM10.4923 8.5035L14.308 10.5599L14.2804 17.3513L10.4647 15.2679L10.4923 8.5035Z" fill="#7C7C79"/>
<path d="M29.4862 9.88342L24.914 8.99051L18.9343 11.8586H18.8796L21.0448 18.6772L25.5623 19.5436H25.5899L25.6722 19.5159L31.6519 16.6749L29.4862 9.88342Z" fill="white" fill-opacity="0.995633"/>
<path d="M24.9676 8.99051H24.8864L18.9343 11.8586L18.9067 11.8857C18.8342 11.8857 18.7985 11.9312 18.7985 12.021V12.0751L20.9625 18.8666C20.9625 18.9207 20.9999 18.9477 21.0718 18.9477L25.7517 19.8677L25.8064 19.8141L31.7596 16.946C31.8494 16.9097 31.877 16.847 31.8397 16.7566L29.6756 9.99219V9.93862L29.648 9.911H29.6204V9.88395H29.5679L24.9676 8.99051ZM23.7224 12.9951L29.4586 10.2352L31.515 16.729L25.7788 19.4894L23.7224 12.9951ZM24.9676 9.28814L29.0798 10.0728L23.5065 12.7515L19.4208 11.9669L24.9676 9.28814ZM23.4259 13.0492L25.4822 19.4889L21.2066 18.6766L19.1502 12.2098L23.4259 13.0492Z" fill="#7C7C79"/>
<path d="M24.9676 22.7093V15.5926L20.8554 13.3468L14.3075 14.2668L14.2528 14.2392V21.3829L18.2849 23.6017H18.3932L24.9676 22.7093Z" fill="white" fill-opacity="0.995633"/>
<path d="M25.131 15.7549L25.1034 15.7273L25.131 15.7003H25.1034V15.6732L25.0488 15.6191V15.5921L20.9365 13.3733L20.8283 13.3463L14.3079 14.2662H14.2533C14.1997 14.2662 14.1548 14.3025 14.1185 14.3739L14.0909 21.5442C14.0909 21.5804 14.1185 21.6254 14.1721 21.6789L18.3666 23.9523L18.4478 23.9247L24.9681 23.0048C25.059 23.0048 25.1039 22.9598 25.1039 22.87L25.131 15.7549ZM24.8318 15.9173L24.8052 22.7358L18.5008 23.6022L18.5284 16.7831L24.8318 15.9173ZM14.7403 14.5097L20.8283 13.6439L24.5081 15.6462L18.3937 16.512L14.7403 14.5097ZM14.3886 21.4641L14.4162 14.6726L18.2308 16.7561L18.2042 23.5199L14.3886 21.4641Z" fill="#7C7C79"/>
</svg>
