<svg width="40" height="40" viewBox="0 0 40 40" fill="none" xmlns="http://www.w3.org/2000/svg">
<path d="M20 0C14.5 0 9.783 1.95 5.851 5.851C1.95 9.75 0 14.467 0 20C0 25.533 1.95 30.233 5.851 34.101C9.783 38.033 14.5 40 20 40C25.533 40 30.25 38.033 34.15 34.101C38.051 30.233 40 25.533 40 20C40 14.467 38.051 9.75 34.15 5.851C30.25 1.95 25.533 0 20 0Z" fill="#138F34"/>
<path d="M13.601 30.3C13.467 30.5 13.451 30.734 13.55 31C19.283 28.934 22 25.584 21.7 20.95C21.634 20.55 21.45 20.3 21.15 20.2C19.25 20.334 17.9 21.134 17.1 22.6C16.4 23.933 16.033 25.383 15.999 26.95C15.166 23.95 16.332 21.55 19.499 19.75C19.633 19.617 19.649 19.55 19.549 19.55C18.949 19.283 18.1 19.367 16.999 19.8C13.899 21.834 12.899 24.851 13.999 28.851C14.134 29.384 14 29.867 13.601 30.3ZM11.101 9.9C10.467 9.9 9.984 9.667 9.651 9.2C9.483 9.033 9.267 8.967 9 9C9.667 14.7 12.4 18 17.2 18.9C17.634 19 17.95 18.917 18.15 18.65C18.483 16.883 17.983 15.466 16.65 14.4C15.483 13.433 14.1 12.733 12.5 12.299C15.833 12.299 18.017 13.966 19.05 17.299C19.083 17.466 19.167 17.499 19.3 17.4C19.634 16.933 19.734 16.133 19.601 15C18.3 11.667 15.467 9.967 11.101 9.9ZM31 10.25C30.7 10.217 30.484 10.283 30.351 10.45C29.985 10.95 29.5 11.2 28.901 11.2C24.534 11.233 21.701 12.933 20.401 16.3C20.267 17.434 20.384 18.217 20.751 18.651C20.817 18.784 20.885 18.751 20.951 18.55C22.018 15.25 24.184 13.584 27.451 13.55C25.885 14.017 24.518 14.717 23.351 15.651C22.018 16.784 21.518 18.234 21.851 20.001C22.084 20.234 22.401 20.301 22.801 20.201C27.601 19.3 30.334 15.983 31 10.25Z" fill="white"/>
</svg>
