<svg width="40" height="40" viewBox="0 0 40 40" fill="none" xmlns="http://www.w3.org/2000/svg">
<path d="M20 0C14.5 0 9.783 1.95 5.85 5.85C1.95 9.75 0 14.467 0 20C0 25.533 1.95 30.233 5.85 34.1C9.783 38.033 14.5 40 20 40C25.533 40 30.25 38.033 34.15 34.1C38.051 30.233 40 25.533 40 20C40 14.467 38.051 9.75 34.15 5.85C30.25 1.95 25.533 0 20 0Z" fill="#138F34"/>
<path d="M9.20001 22.3C8.86701 24.734 9.10001 26.467 9.90001 27.5C10.033 27.7 10.167 27.633 10.3 27.3C12.467 20 16.95 16.317 23.75 16.25C20.483 17.25 17.65 18.816 15.25 20.95C12.517 23.316 11.483 26.45 12.15 30.349C12.583 30.916 13.233 31.099 14.1 30.899C24 28.899 29.633 21.6 31 9C30.4 8.933 29.967 9.083 29.699 9.45C28.933 10.55 27.933 11.099 26.699 11.099C17.667 11.2 11.833 14.934 9.20001 22.3Z" fill="white"/>
</svg>
