<svg width="31" height="30" viewBox="0 0 31 30" fill="none" xmlns="http://www.w3.org/2000/svg">
<g clip-path="url(#clip0_5_141)">
<path d="M30.3455 14.6137C30.3455 22.6847 23.7285 29.2273 15.5646 29.2273C12.9729 29.2273 10.538 28.5673 8.41971 27.409L0.236389 30L2.90439 22.1593C1.55851 19.9573 0.783371 17.3747 0.783371 14.6137C0.783371 6.54267 7.40101 0 15.5646 0C23.7292 0 30.3455 6.54267 30.3455 14.6137ZM15.5646 2.32733C8.71176 2.32733 3.13757 7.839 3.13757 14.6137C3.13757 17.302 4.01709 19.7917 5.50481 21.817L3.95219 26.38L8.72782 24.8677C10.6899 26.1513 13.0404 26.9 15.5649 26.9C22.4168 26.9 27.992 21.389 27.992 14.6143C27.992 7.83967 22.4171 2.32733 15.5646 2.32733ZM23.0286 17.9793C22.9373 17.8303 22.6961 17.7403 22.3341 17.5613C21.9715 17.3823 20.1897 16.5153 19.8585 16.3963C19.5263 16.277 19.2841 16.217 19.0429 16.5753C18.8017 16.934 18.1071 17.7403 17.8954 17.9793C17.6839 18.219 17.4728 18.249 17.1102 18.0697C16.7482 17.8907 15.581 17.512 14.197 16.292C13.1201 15.3427 12.3928 14.1707 12.1813 13.8117C11.9702 13.4533 12.1593 13.2597 12.3402 13.0813C12.5035 12.9207 12.7029 12.663 12.8839 12.454C13.0655 12.2447 13.1258 12.0957 13.2459 11.8563C13.3673 11.6173 13.3067 11.4083 13.2157 11.2287C13.1254 11.0497 12.4001 9.287 12.0984 8.56967C11.7966 7.853 11.4952 7.97233 11.2834 7.97233C11.0723 7.97233 10.8304 7.94233 10.5889 7.94233C10.3474 7.94233 9.9546 8.032 9.6224 8.39033C9.29053 8.749 8.3548 9.61567 8.3548 11.378C8.3548 13.1407 9.65251 14.8437 9.83416 15.0823C10.0152 15.321 12.3399 19.0557 16.0233 20.49C19.7069 21.9237 19.7069 21.4453 20.3713 21.3853C21.0351 21.3257 22.5144 20.519 22.8175 19.683C23.1186 18.8457 23.1186 18.1287 23.0286 17.9793Z" fill="url(#paint0_linear_5_141)"/>
</g>
<defs>
<linearGradient id="paint0_linear_5_141" x1="15.2909" y1="0" x2="15.2909" y2="30" gradientUnits="userSpaceOnUse">
<stop stop-color="#00C383"/>
<stop offset="1" stop-color="#00BB55"/>
</linearGradient>
<clipPath id="clip0_5_141">
<rect width="30.1091" height="30" fill="white" transform="translate(0.236389)"/>
</clipPath>
</defs>
</svg>
